<mxfile host="app.diagrams.net" modified="2023-03-12T18:36:02.720Z" agent="5.0 (Windows)" etag="aunUMBmiGOkHVwmdHPu9" version="21.0.6" type="github">
  <diagram name="Page-1" id="c_9UT2JSTmkC-Qce2Pwd">
    <mxGraphModel dx="955" dy="482" grid="1" gridSize="10" guides="1" tooltips="1" connect="1" arrows="1" fold="1" page="1" pageScale="1" pageWidth="827" pageHeight="1169" math="0" shadow="0">
      <root>
        <mxCell id="0" />
        <mxCell id="1" parent="0" />
        <mxCell id="dDMGeoulFam2Kv4sPXcY-1" value="" style="shape=umlLifeline;perimeter=lifelinePerimeter;whiteSpace=wrap;html=1;container=1;dropTarget=0;collapsible=0;recursiveResize=0;outlineConnect=0;portConstraint=eastwest;newEdgeStyle={&quot;edgeStyle&quot;:&quot;elbowEdgeStyle&quot;,&quot;elbow&quot;:&quot;vertical&quot;,&quot;curved&quot;:0,&quot;rounded&quot;:0};participant=umlBoundary;fillColor=#d5e8d4;strokeColor=#82b366;" vertex="1" parent="1">
          <mxGeometry x="130" y="70" width="50" height="430" as="geometry" />
        </mxCell>
        <mxCell id="dDMGeoulFam2Kv4sPXcY-37" value="" style="html=1;points=[];perimeter=orthogonalPerimeter;outlineConnect=0;targetShapes=umlLifeline;portConstraint=eastwest;newEdgeStyle={&quot;edgeStyle&quot;:&quot;elbowEdgeStyle&quot;,&quot;elbow&quot;:&quot;vertical&quot;,&quot;curved&quot;:0,&quot;rounded&quot;:0};fillColor=#d5e8d4;strokeColor=#82b366;" vertex="1" parent="dDMGeoulFam2Kv4sPXcY-1">
          <mxGeometry x="20" y="140" width="10" height="280" as="geometry" />
        </mxCell>
        <mxCell id="dDMGeoulFam2Kv4sPXcY-2" value="" style="shape=umlLifeline;perimeter=lifelinePerimeter;whiteSpace=wrap;html=1;container=1;dropTarget=0;collapsible=0;recursiveResize=0;outlineConnect=0;portConstraint=eastwest;newEdgeStyle={&quot;edgeStyle&quot;:&quot;elbowEdgeStyle&quot;,&quot;elbow&quot;:&quot;vertical&quot;,&quot;curved&quot;:0,&quot;rounded&quot;:0};participant=umlActor;" vertex="1" parent="1">
          <mxGeometry x="30" y="70" width="20" height="380" as="geometry" />
        </mxCell>
        <mxCell id="dDMGeoulFam2Kv4sPXcY-3" value="" style="html=1;points=[];perimeter=orthogonalPerimeter;outlineConnect=0;targetShapes=umlLifeline;portConstraint=eastwest;newEdgeStyle={&quot;edgeStyle&quot;:&quot;elbowEdgeStyle&quot;,&quot;elbow&quot;:&quot;vertical&quot;,&quot;curved&quot;:0,&quot;rounded&quot;:0};fillColor=#d5e8d4;strokeColor=#82b366;" vertex="1" parent="dDMGeoulFam2Kv4sPXcY-2">
          <mxGeometry x="4" y="70" width="10" height="310" as="geometry" />
        </mxCell>
        <mxCell id="dDMGeoulFam2Kv4sPXcY-4" value="" style="shape=umlLifeline;perimeter=lifelinePerimeter;whiteSpace=wrap;html=1;container=1;dropTarget=0;collapsible=0;recursiveResize=0;outlineConnect=0;portConstraint=eastwest;newEdgeStyle={&quot;edgeStyle&quot;:&quot;elbowEdgeStyle&quot;,&quot;elbow&quot;:&quot;vertical&quot;,&quot;curved&quot;:0,&quot;rounded&quot;:0};participant=umlEntity;" vertex="1" parent="1">
          <mxGeometry x="631" y="70" width="40" height="420" as="geometry" />
        </mxCell>
        <mxCell id="dDMGeoulFam2Kv4sPXcY-5" value="" style="html=1;points=[];perimeter=orthogonalPerimeter;outlineConnect=0;targetShapes=umlLifeline;portConstraint=eastwest;newEdgeStyle={&quot;edgeStyle&quot;:&quot;elbowEdgeStyle&quot;,&quot;elbow&quot;:&quot;vertical&quot;,&quot;curved&quot;:0,&quot;rounded&quot;:0};" vertex="1" parent="dDMGeoulFam2Kv4sPXcY-4">
          <mxGeometry x="15" y="310" width="10" height="62" as="geometry" />
        </mxCell>
        <mxCell id="dDMGeoulFam2Kv4sPXcY-6" value="" style="shape=umlLifeline;perimeter=lifelinePerimeter;whiteSpace=wrap;html=1;container=1;dropTarget=0;collapsible=0;recursiveResize=0;outlineConnect=0;portConstraint=eastwest;newEdgeStyle={&quot;edgeStyle&quot;:&quot;elbowEdgeStyle&quot;,&quot;elbow&quot;:&quot;vertical&quot;,&quot;curved&quot;:0,&quot;rounded&quot;:0};participant=umlControl;" vertex="1" parent="1">
          <mxGeometry x="444" y="65" width="40" height="420" as="geometry" />
        </mxCell>
        <mxCell id="dDMGeoulFam2Kv4sPXcY-7" value="" style="html=1;points=[];perimeter=orthogonalPerimeter;outlineConnect=0;targetShapes=umlLifeline;portConstraint=eastwest;newEdgeStyle={&quot;edgeStyle&quot;:&quot;elbowEdgeStyle&quot;,&quot;elbow&quot;:&quot;vertical&quot;,&quot;curved&quot;:0,&quot;rounded&quot;:0};" vertex="1" parent="dDMGeoulFam2Kv4sPXcY-6">
          <mxGeometry x="15" y="310" width="10" height="70" as="geometry" />
        </mxCell>
        <mxCell id="dDMGeoulFam2Kv4sPXcY-12" value="1:Cliquer sur &quot;Ajouter&quot;" style="html=1;verticalAlign=bottom;endArrow=block;edgeStyle=elbowEdgeStyle;elbow=vertical;curved=0;rounded=0;" edge="1" parent="1">
          <mxGeometry relative="1" as="geometry">
            <mxPoint x="45" y="216" as="sourcePoint" />
            <mxPoint x="150" y="216" as="targetPoint" />
            <Array as="points">
              <mxPoint x="145" y="216" />
              <mxPoint x="155" y="196" />
              <mxPoint x="55" y="166" />
              <mxPoint x="105" y="166" />
            </Array>
          </mxGeometry>
        </mxCell>
        <mxCell id="dDMGeoulFam2Kv4sPXcY-15" value=":INouvelUtilisateur" style="text;html=1;align=center;verticalAlign=middle;resizable=0;points=[];autosize=1;strokeColor=none;fillColor=none;" vertex="1" parent="1">
          <mxGeometry x="210" y="40" width="120" height="30" as="geometry" />
        </mxCell>
        <mxCell id="dDMGeoulFam2Kv4sPXcY-16" value=":CtrlUtilisateur" style="text;html=1;align=center;verticalAlign=middle;resizable=0;points=[];autosize=1;strokeColor=none;fillColor=none;" vertex="1" parent="1">
          <mxGeometry x="414" y="35" width="100" height="30" as="geometry" />
        </mxCell>
        <mxCell id="dDMGeoulFam2Kv4sPXcY-17" value=":utilisateur" style="text;html=1;align=center;verticalAlign=middle;resizable=0;points=[];autosize=1;strokeColor=none;fillColor=none;" vertex="1" parent="1">
          <mxGeometry x="607" y="40" width="80" height="30" as="geometry" />
        </mxCell>
        <mxCell id="dDMGeoulFam2Kv4sPXcY-18" value="Visiteur" style="text;html=1;strokeColor=none;fillColor=none;align=center;verticalAlign=middle;whiteSpace=wrap;rounded=0;" vertex="1" parent="1">
          <mxGeometry x="10" y="40" width="60" height="30" as="geometry" />
        </mxCell>
        <mxCell id="dDMGeoulFam2Kv4sPXcY-19" value=":IListeUtilisateurs" style="text;html=1;align=center;verticalAlign=middle;resizable=0;points=[];autosize=1;strokeColor=none;fillColor=none;" vertex="1" parent="1">
          <mxGeometry x="105" y="40" width="110" height="30" as="geometry" />
        </mxCell>
        <mxCell id="dDMGeoulFam2Kv4sPXcY-23" value="" style="html=1;verticalAlign=bottom;endArrow=block;edgeStyle=elbowEdgeStyle;elbow=vertical;curved=0;rounded=0;" edge="1" parent="1">
          <mxGeometry relative="1" as="geometry">
            <mxPoint x="275" y="389.28" as="sourcePoint" />
            <mxPoint x="459" y="381.56999999999994" as="targetPoint" />
            <Array as="points">
              <mxPoint x="263" y="381.56999999999994" />
              <mxPoint x="163" y="351.56999999999994" />
              <mxPoint x="419" y="389" />
            </Array>
          </mxGeometry>
        </mxCell>
        <mxCell id="dDMGeoulFam2Kv4sPXcY-24" value="6: Ajouter utilisateur(formulaire)" style="text;html=1;strokeColor=none;fillColor=none;align=center;verticalAlign=middle;whiteSpace=wrap;rounded=0;" vertex="1" parent="1">
          <mxGeometry x="279" y="350" width="175" height="30" as="geometry" />
        </mxCell>
        <mxCell id="dDMGeoulFam2Kv4sPXcY-25" value="11: Redirection()" style="text;html=1;strokeColor=none;fillColor=none;align=center;verticalAlign=middle;whiteSpace=wrap;rounded=0;" vertex="1" parent="1">
          <mxGeometry x="170" y="436" width="90" height="30" as="geometry" />
        </mxCell>
        <mxCell id="dDMGeoulFam2Kv4sPXcY-29" value="" style="shape=umlLifeline;perimeter=lifelinePerimeter;whiteSpace=wrap;html=1;container=1;dropTarget=0;collapsible=0;recursiveResize=0;outlineConnect=0;portConstraint=eastwest;newEdgeStyle={&quot;edgeStyle&quot;:&quot;elbowEdgeStyle&quot;,&quot;elbow&quot;:&quot;vertical&quot;,&quot;curved&quot;:0,&quot;rounded&quot;:0};participant=umlBoundary;fillColor=#d5e8d4;strokeColor=#82b366;" vertex="1" parent="1">
          <mxGeometry x="245" y="70" width="50" height="440" as="geometry" />
        </mxCell>
        <mxCell id="dDMGeoulFam2Kv4sPXcY-30" value="" style="html=1;points=[];perimeter=orthogonalPerimeter;outlineConnect=0;targetShapes=umlLifeline;portConstraint=eastwest;newEdgeStyle={&quot;edgeStyle&quot;:&quot;elbowEdgeStyle&quot;,&quot;elbow&quot;:&quot;vertical&quot;,&quot;curved&quot;:0,&quot;rounded&quot;:0};fillColor=#d5e8d4;strokeColor=#82b366;" vertex="1" parent="dDMGeoulFam2Kv4sPXcY-29">
          <mxGeometry x="20" y="145" width="10" height="285" as="geometry" />
        </mxCell>
        <mxCell id="dDMGeoulFam2Kv4sPXcY-42" value="&lt;div&gt;5: VÃ©rifier les&lt;/div&gt;&lt;div&gt;Formats()&lt;br&gt;&lt;/div&gt;" style="html=1;align=left;spacingLeft=2;endArrow=block;rounded=0;edgeStyle=orthogonalEdgeStyle;curved=0;rounded=0;" edge="1" target="dDMGeoulFam2Kv4sPXcY-30" parent="dDMGeoulFam2Kv4sPXcY-29" source="dDMGeoulFam2Kv4sPXcY-30">
          <mxGeometry relative="1" as="geometry">
            <mxPoint x="-85.02000000000001" y="220" as="sourcePoint" />
            <Array as="points">
              <mxPoint x="75" y="220" />
              <mxPoint x="75" y="250" />
            </Array>
          </mxGeometry>
        </mxCell>
        <mxCell id="dDMGeoulFam2Kv4sPXcY-34" value="alt" style="shape=umlFrame;whiteSpace=wrap;html=1;pointerEvents=0;width=37;height=20;" vertex="1" parent="1">
          <mxGeometry x="10" y="150" width="180" height="40" as="geometry" />
        </mxCell>
        <mxCell id="dDMGeoulFam2Kv4sPXcY-36" value="S&#39;authentifier" style="text;html=1;strokeColor=none;fillColor=none;align=center;verticalAlign=middle;whiteSpace=wrap;rounded=0;" vertex="1" parent="1">
          <mxGeometry x="70" y="155" width="60" height="30" as="geometry" />
        </mxCell>
        <mxCell id="dDMGeoulFam2Kv4sPXcY-38" value="2:Activer()" style="html=1;verticalAlign=bottom;endArrow=block;edgeStyle=elbowEdgeStyle;elbow=vertical;curved=0;rounded=0;" edge="1" parent="1">
          <mxGeometry relative="1" as="geometry">
            <mxPoint x="160" y="220" as="sourcePoint" />
            <mxPoint x="265" y="220" as="targetPoint" />
            <Array as="points">
              <mxPoint x="260" y="220" />
              <mxPoint x="270" y="200" />
              <mxPoint x="170" y="170" />
              <mxPoint x="220" y="170" />
            </Array>
          </mxGeometry>
        </mxCell>
        <mxCell id="dDMGeoulFam2Kv4sPXcY-39" value="4: Remplir(formulaire)" style="html=1;verticalAlign=bottom;endArrow=block;edgeStyle=elbowEdgeStyle;elbow=vertical;curved=0;rounded=0;" edge="1" parent="1" target="dDMGeoulFam2Kv4sPXcY-30">
          <mxGeometry relative="1" as="geometry">
            <mxPoint x="45" y="280" as="sourcePoint" />
            <mxPoint x="155" y="250" as="targetPoint" />
            <Array as="points">
              <mxPoint x="230" y="280" />
              <mxPoint x="145" y="250" />
              <mxPoint x="155" y="230" />
              <mxPoint x="55" y="200" />
              <mxPoint x="105" y="200" />
            </Array>
          </mxGeometry>
        </mxCell>
        <mxCell id="dDMGeoulFam2Kv4sPXcY-40" value="3: Afficher (formulaire)" style="html=1;verticalAlign=bottom;endArrow=block;edgeStyle=elbowEdgeStyle;elbow=vertical;curved=0;rounded=0;" edge="1" parent="1">
          <mxGeometry relative="1" as="geometry">
            <mxPoint x="265" y="250" as="sourcePoint" />
            <mxPoint x="45" y="250" as="targetPoint" />
            <Array as="points">
              <mxPoint x="160" y="250" />
              <mxPoint x="55" y="170" />
              <mxPoint x="155" y="200" />
              <mxPoint x="145" y="220" />
              <mxPoint x="230" y="250" />
            </Array>
          </mxGeometry>
        </mxCell>
        <mxCell id="dDMGeoulFam2Kv4sPXcY-13" value="alt" style="shape=umlFrame;whiteSpace=wrap;html=1;pointerEvents=0;width=37;height=20;" vertex="1" parent="1">
          <mxGeometry x="93" y="340" width="587" height="150.5" as="geometry" />
        </mxCell>
        <mxCell id="dDMGeoulFam2Kv4sPXcY-22" value="" style="html=1;verticalAlign=bottom;endArrow=block;edgeStyle=elbowEdgeStyle;elbow=vertical;curved=0;rounded=0;" edge="1" parent="1">
          <mxGeometry relative="1" as="geometry">
            <mxPoint x="265" y="467" as="sourcePoint" />
            <mxPoint x="160" y="467" as="targetPoint" />
            <Array as="points">
              <mxPoint x="210" y="467" />
              <mxPoint x="270" y="468.28999999999996" />
              <mxPoint x="260" y="488.28999999999996" />
            </Array>
          </mxGeometry>
        </mxCell>
        <mxCell id="dDMGeoulFam2Kv4sPXcY-28" value="" style="html=1;verticalAlign=bottom;endArrow=none;edgeStyle=elbowEdgeStyle;elbow=vertical;curved=0;rounded=0;dashed=1;endFill=0;exitX=0.999;exitY=0.578;exitDx=0;exitDy=0;exitPerimeter=0;" edge="1" parent="1" source="dDMGeoulFam2Kv4sPXcY-13">
          <mxGeometry relative="1" as="geometry">
            <mxPoint x="670" y="425" as="sourcePoint" />
            <mxPoint x="93" y="425.19" as="targetPoint" />
            <Array as="points">
              <mxPoint x="223" y="425.19" />
              <mxPoint x="103" y="387.47999999999996" />
              <mxPoint x="203" y="417.47999999999996" />
              <mxPoint x="193" y="437.47999999999996" />
            </Array>
          </mxGeometry>
        </mxCell>
        <mxCell id="dDMGeoulFam2Kv4sPXcY-43" value="" style="html=1;verticalAlign=bottom;endArrow=block;edgeStyle=elbowEdgeStyle;elbow=vertical;curved=0;rounded=0;" edge="1" parent="1">
          <mxGeometry relative="1" as="geometry">
            <mxPoint x="265" y="412" as="sourcePoint" />
            <mxPoint x="160" y="412" as="targetPoint" />
            <Array as="points">
              <mxPoint x="210" y="412" />
              <mxPoint x="270" y="413.28999999999996" />
              <mxPoint x="260" y="433.28999999999996" />
            </Array>
          </mxGeometry>
        </mxCell>
        <mxCell id="dDMGeoulFam2Kv4sPXcY-44" value="10: Mise Ã  jour" style="text;html=1;strokeColor=none;fillColor=none;align=center;verticalAlign=middle;whiteSpace=wrap;rounded=0;" vertex="1" parent="1">
          <mxGeometry x="170" y="380" width="90" height="30" as="geometry" />
        </mxCell>
        <mxCell id="dDMGeoulFam2Kv4sPXcY-45" value="9: Success" style="html=1;verticalAlign=bottom;endArrow=open;dashed=1;endSize=8;edgeStyle=elbowEdgeStyle;elbow=vertical;curved=0;rounded=0;" edge="1" parent="1">
          <mxGeometry x="0.3714" relative="1" as="geometry">
            <mxPoint x="315" y="409" as="sourcePoint" />
            <mxPoint x="275" y="409" as="targetPoint" />
            <Array as="points">
              <mxPoint x="460" y="409" />
            </Array>
            <mxPoint as="offset" />
          </mxGeometry>
        </mxCell>
        <mxCell id="dDMGeoulFam2Kv4sPXcY-47" value="7: CreateUtilisateur(forumulaire)" style="text;html=1;strokeColor=none;fillColor=none;align=center;verticalAlign=middle;whiteSpace=wrap;rounded=0;" vertex="1" parent="1">
          <mxGeometry x="465" y="350" width="175" height="30" as="geometry" />
        </mxCell>
        <mxCell id="dDMGeoulFam2Kv4sPXcY-48" value="" style="html=1;verticalAlign=bottom;endArrow=block;edgeStyle=elbowEdgeStyle;elbow=vertical;curved=0;rounded=0;" edge="1" parent="1" source="dDMGeoulFam2Kv4sPXcY-7">
          <mxGeometry relative="1" as="geometry">
            <mxPoint x="465" y="387.71" as="sourcePoint" />
            <mxPoint x="649" y="379.99999999999994" as="targetPoint" />
            <Array as="points">
              <mxPoint x="470" y="380" />
              <mxPoint x="353" y="349.99999999999994" />
              <mxPoint x="609" y="387.43" />
            </Array>
          </mxGeometry>
        </mxCell>
        <mxCell id="dDMGeoulFam2Kv4sPXcY-49" value="8: Success" style="html=1;verticalAlign=bottom;endArrow=open;dashed=1;endSize=8;edgeStyle=elbowEdgeStyle;elbow=vertical;curved=0;rounded=0;" edge="1" parent="1">
          <mxGeometry x="0.3714" relative="1" as="geometry">
            <mxPoint x="500" y="400" as="sourcePoint" />
            <mxPoint x="470" y="400" as="targetPoint" />
            <Array as="points">
              <mxPoint x="645" y="400" />
            </Array>
            <mxPoint as="offset" />
          </mxGeometry>
        </mxCell>
      </root>
    </mxGraphModel>
  </diagram>
</mxfile>
